<?xml version="1.0" encoding="UTF-8"?>
<svg xmlns="http://www.w3.org/2000/svg" xmlns:xlink="http://www.w3.org/1999/xlink" width="200px" height="20px" viewBox="0 0 196 20" version="1.1">
<g id="surface1">
<path style=" stroke:none;fill-rule:nonzero;fill:rgb(0%,0%,0%);fill-opacity:1;" d="M 4.339844 19.925781 C 3.324219 19.925781 2.570312 19.792969 2.070312 19.523438 C 1.570312 19.257812 1.15625 18.773438 0.824219 18.074219 C 0.589844 17.542969 0.394531 16.671875 0.238281 15.464844 C 0.078125 14.253906 0 12.683594 0 10.75 C 0 9.398438 0.0273438 8.109375 0.0859375 6.875 C 0.144531 5.640625 0.234375 4.691406 0.347656 4.023438 C 0.480469 3.175781 0.703125 2.566406 1.007812 2.199219 C 1.316406 1.832031 1.703125 1.648438 2.167969 1.648438 C 2.585938 1.648438 2.914062 1.832031 3.152344 2.199219 C 3.394531 2.566406 3.566406 3.0625 3.664062 3.683594 C 3.765625 4.3125 3.816406 5 3.816406 5.75 C 3.816406 7.785156 3.742188 9.839844 3.601562 11.925781 C 3.460938 14.007812 3.265625 15.925781 3.015625 17.675781 L 2.691406 17.226562 C 3.441406 16.707031 4.242188 16.265625 5.097656 15.898438 C 5.953125 15.535156 6.792969 15.25 7.617188 15.050781 C 8.441406 14.851562 9.160156 14.75 9.773438 14.75 C 10.390625 14.75 10.84375 14.875 11.132812 15.125 C 11.425781 15.375 11.570312 15.734375 11.570312 16.199219 C 11.570312 16.667969 11.367188 17.136719 10.960938 17.609375 C 10.554688 18.085938 9.972656 18.5 9.226562 18.851562 C 8.8125 19.050781 8.320312 19.230469 7.753906 19.390625 C 7.191406 19.546875 6.613281 19.675781 6.019531 19.773438 C 5.429688 19.875 4.871094 19.925781 4.339844 19.925781 Z M 15.835938 0.601562 C 16.5 0.601562 16.976562 0.785156 17.269531 1.148438 C 17.558594 1.515625 17.703125 1.941406 17.703125 2.425781 C 17.703125 3.023438 17.523438 3.488281 17.167969 3.808594 C 16.808594 4.136719 16.308594 4.300781 15.660156 4.300781 C 15.027344 4.300781 14.554688 4.121094 14.238281 3.765625 C 13.921875 3.40625 13.765625 2.984375 13.765625 2.5 C 13.765625 1.867188 13.957031 1.390625 14.339844 1.074219 C 14.722656 0.757812 15.21875 0.601562 15.835938 0.601562 M 15.984375 6.175781 C 16.515625 6.175781 16.9375 6.675781 17.246094 7.675781 C 17.550781 8.675781 17.703125 10.265625 17.703125 12.449219 C 17.703125 15.132812 17.511719 17.066406 17.132812 18.25 C 16.75 19.433594 16.167969 20.023438 15.386719 20.023438 C 14.789062 20.023438 14.347656 19.589844 14.0625 18.714844 C 13.78125 17.839844 13.640625 16.308594 13.640625 14.125 C 13.640625 11.441406 13.859375 9.445312 14.304688 8.136719 C 14.742188 6.828125 15.300781 6.175781 15.984375 6.175781 Z M 24.960938 4.726562 L 24.460938 4.726562 C 24.414062 3.992188 24.429688 3.296875 24.511719 2.640625 C 24.59375 1.980469 24.773438 1.445312 25.046875 1.035156 C 25.320312 0.628906 25.71875 0.425781 26.234375 0.425781 C 26.699219 0.425781 27.039062 0.574219 27.253906 0.875 C 27.472656 1.175781 27.578125 1.589844 27.578125 2.125 C 27.578125 3.175781 27.378906 4.074219 26.980469 4.824219 L 26.53125 4.773438 C 27.429688 4.457031 28.445312 4.300781 29.574219 4.300781 C 30.289062 4.300781 30.859375 4.4375 31.28125 4.714844 C 31.707031 4.988281 31.917969 5.449219 31.917969 6.101562 C 31.917969 6.714844 31.667969 7.183594 31.171875 7.5 C 30.671875 7.816406 30.046875 7.976562 29.300781 7.976562 C 28.851562 7.976562 28.375 7.953125 27.867188 7.910156 C 27.359375 7.871094 26.863281 7.800781 26.382812 7.699219 L 26.804688 7.175781 C 26.957031 7.808594 27.101562 8.53125 27.246094 9.339844 C 27.386719 10.148438 27.511719 10.984375 27.628906 11.851562 C 27.746094 12.714844 27.835938 13.558594 27.902344 14.375 C 27.96875 15.191406 28.003906 15.925781 28.003906 16.574219 C 28.003906 17.640625 27.835938 18.484375 27.503906 19.101562 C 27.171875 19.714844 26.683594 20.023438 26.035156 20.023438 C 25.519531 20.023438 25.113281 19.867188 24.820312 19.550781 C 24.53125 19.234375 24.324219 18.828125 24.199219 18.339844 C 24.074219 17.847656 24 17.332031 23.972656 16.800781 C 23.949219 16.265625 23.9375 15.785156 23.9375 15.351562 C 23.9375 14.617188 23.972656 13.785156 24.039062 12.859375 C 24.105469 11.9375 24.199219 10.984375 24.324219 10 C 24.449219 9.015625 24.59375 8.066406 24.761719 7.148438 L 25.261719 7.574219 C 24.414062 8.007812 23.367188 8.226562 22.117188 8.226562 C 21.355469 8.226562 20.765625 8.082031 20.347656 7.800781 C 19.933594 7.515625 19.726562 7.074219 19.726562 6.476562 C 19.726562 5.824219 19.957031 5.320312 20.421875 4.964844 C 20.886719 4.605469 21.511719 4.425781 22.292969 4.425781 C 22.808594 4.425781 23.296875 4.453125 23.753906 4.511719 C 24.210938 4.570312 24.613281 4.640625 24.960938 4.726562 Z M 45.160156 19.625 C 44.710938 19.625 44.363281 19.46875 44.121094 19.160156 C 43.882812 18.851562 43.722656 18.453125 43.640625 17.964844 C 43.554688 17.472656 43.515625 16.949219 43.515625 16.398438 L 43.640625 16.300781 C 43.472656 17.015625 43.148438 17.632812 42.667969 18.148438 C 42.183594 18.667969 41.628906 19.0625 40.996094 19.339844 C 40.363281 19.613281 39.730469 19.75 39.101562 19.75 C 38.253906 19.75 37.480469 19.550781 36.78125 19.148438 C 36.082031 18.75 35.542969 18.132812 35.160156 17.300781 C 34.777344 16.417969 34.480469 15.304688 34.261719 13.964844 C 34.046875 12.621094 33.9375 11.242188 33.9375 9.824219 C 33.9375 9.058594 33.972656 8.351562 34.039062 7.699219 C 34.105469 7.050781 34.210938 6.515625 34.363281 6.101562 C 34.496094 5.667969 34.695312 5.34375 34.960938 5.136719 C 35.226562 4.929688 35.566406 4.824219 35.984375 4.824219 C 36.464844 4.824219 36.84375 5.011719 37.117188 5.386719 C 37.390625 5.761719 37.5625 6.285156 37.628906 6.949219 C 37.695312 7.5 37.742188 8.179688 37.761719 8.984375 C 37.789062 9.796875 37.816406 10.601562 37.84375 11.410156 C 37.867188 12.21875 37.902344 12.898438 37.953125 13.449219 C 38.054688 14.449219 38.3125 15.1875 38.726562 15.660156 C 39.140625 16.136719 39.648438 16.375 40.246094 16.375 C 41.128906 16.375 41.800781 16.042969 42.265625 15.375 C 42.734375 14.707031 42.964844 13.773438 42.964844 12.574219 C 42.964844 11.976562 42.933594 11.296875 42.867188 10.535156 C 42.800781 9.777344 42.730469 9.042969 42.65625 8.324219 C 42.578125 7.609375 42.542969 7.015625 42.542969 6.550781 C 42.542969 5.765625 42.675781 5.203125 42.941406 4.859375 C 43.207031 4.519531 43.570312 4.351562 44.039062 4.351562 C 44.4375 4.351562 44.773438 4.457031 45.050781 4.675781 C 45.324219 4.890625 45.542969 5.191406 45.707031 5.574219 C 45.941406 6.074219 46.140625 6.757812 46.308594 7.625 C 46.472656 8.492188 46.605469 9.476562 46.707031 10.574219 C 46.804688 11.675781 46.855469 12.832031 46.855469 14.050781 C 46.855469 15.917969 46.730469 17.3125 46.480469 18.234375 C 46.230469 19.160156 45.792969 19.625 45.160156 19.625 Z M 59.746094 19.898438 C 58.71875 19.898438 57.863281 19.703125 57.1875 19.316406 C 56.515625 18.921875 56.015625 18.316406 55.683594 17.5 C 55.449219 16.933594 55.28125 16.246094 55.175781 15.441406 C 55.066406 14.628906 55.007812 13.699219 55.007812 12.648438 C 55.007812 10.851562 55.066406 9.363281 55.183594 8.183594 C 55.300781 7.011719 55.46875 6.0625 55.691406 5.339844 C 55.917969 4.613281 56.171875 4.023438 56.457031 3.574219 C 56.90625 2.890625 57.621094 2.339844 58.601562 1.925781 C 59.582031 1.507812 60.96875 1.300781 62.765625 1.300781 C 63.960938 1.300781 64.921875 1.480469 65.648438 1.839844 C 66.367188 2.195312 66.894531 2.667969 67.21875 3.25 C 67.542969 3.832031 67.703125 4.484375 67.703125 5.199219 C 67.703125 6.332031 67.371094 7.265625 66.703125 8 C 66.039062 8.734375 65.167969 9.316406 64.085938 9.75 L 64.085938 9.851562 C 65.265625 9.984375 66.1875 10.363281 66.84375 10.988281 C 67.5 11.613281 67.828125 12.5 67.828125 13.648438 C 67.828125 14.566406 67.597656 15.402344 67.144531 16.160156 C 66.683594 16.921875 66.070312 17.578125 65.296875 18.140625 C 64.523438 18.695312 63.652344 19.128906 62.691406 19.441406 C 61.726562 19.746094 60.746094 19.898438 59.746094 19.898438 M 60.519531 16.898438 C 61.320312 16.898438 62.03125 16.765625 62.65625 16.5 C 63.277344 16.234375 63.765625 15.871094 64.121094 15.410156 C 64.480469 14.953125 64.660156 14.433594 64.660156 13.851562 C 64.660156 13.214844 64.359375 12.6875 63.753906 12.265625 C 63.144531 11.839844 62.199219 11.625 60.917969 11.625 C 60.054688 11.625 59.371094 11.828125 58.863281 12.234375 C 58.355469 12.644531 58.101562 13.339844 58.101562 14.324219 C 58.101562 15.257812 58.300781 15.921875 58.699219 16.316406 C 59.097656 16.703125 59.707031 16.898438 60.519531 16.898438 M 60.621094 8.976562 C 61.75 8.976562 62.695312 8.722656 63.449219 8.214844 C 64.207031 7.703125 64.585938 7.042969 64.585938 6.226562 C 64.585938 5.625 64.34375 5.140625 63.863281 4.773438 C 63.378906 4.410156 62.671875 4.226562 61.742188 4.226562 C 60.726562 4.226562 59.898438 4.425781 59.25 4.824219 C 58.601562 5.226562 58.277344 5.910156 58.277344 6.875 C 58.277344 7.660156 58.488281 8.203125 58.914062 8.511719 C 59.335938 8.820312 59.90625 8.976562 60.621094 8.976562 Z M 72.789062 0.601562 C 73.453125 0.601562 73.929688 0.785156 74.21875 1.148438 C 74.511719 1.515625 74.660156 1.941406 74.660156 2.425781 C 74.660156 3.023438 74.480469 3.488281 74.125 3.808594 C 73.765625 4.136719 73.261719 4.300781 72.613281 4.300781 C 71.984375 4.300781 71.507812 4.121094 71.195312 3.765625 C 70.878906 3.40625 70.71875 2.984375 70.71875 2.5 C 70.71875 1.867188 70.910156 1.390625 71.292969 1.074219 C 71.675781 0.757812 72.175781 0.601562 72.789062 0.601562 M 72.9375 6.175781 C 73.472656 6.175781 73.890625 6.675781 74.199219 7.675781 C 74.507812 8.675781 74.660156 10.265625 74.660156 12.449219 C 74.660156 15.132812 74.46875 17.066406 74.085938 18.25 C 73.703125 19.433594 73.121094 20.023438 72.339844 20.023438 C 71.742188 20.023438 71.300781 19.589844 71.019531 18.714844 C 70.734375 17.839844 70.59375 16.308594 70.59375 14.125 C 70.59375 11.441406 70.816406 9.445312 71.257812 8.136719 C 71.695312 6.828125 72.257812 6.175781 72.9375 6.175781 Z M 79.398438 20.023438 C 79.082031 20.023438 78.824219 19.929688 78.625 19.734375 C 78.425781 19.546875 78.285156 19.265625 78.199219 18.898438 C 78.066406 18.285156 77.949219 17.390625 77.851562 16.226562 C 77.75 15.058594 77.703125 13.765625 77.703125 12.351562 C 77.703125 10.601562 77.765625 8.917969 77.890625 7.300781 C 78.015625 5.683594 78.175781 4.359375 78.375 3.324219 C 78.589844 2.207031 78.855469 1.386719 79.171875 0.859375 C 79.488281 0.335938 79.90625 0.0742188 80.417969 0.0742188 C 80.886719 0.0742188 81.242188 0.289062 81.492188 0.714844 C 81.742188 1.136719 81.867188 1.867188 81.867188 2.898438 C 81.867188 3.933594 81.828125 5.042969 81.757812 6.226562 C 81.679688 7.410156 81.558594 8.675781 81.390625 10.023438 L 81.492188 10.023438 C 82.574219 8.558594 83.582031 7.382812 84.519531 6.5 C 85.460938 5.617188 86.328125 4.976562 87.117188 4.574219 C 87.90625 4.175781 88.605469 3.976562 89.222656 3.976562 C 89.703125 3.976562 90.0625 4.125 90.292969 4.425781 C 90.527344 4.726562 90.644531 5.089844 90.644531 5.523438 C 90.644531 6.375 89.96875 7.324219 88.613281 8.375 C 87.257812 9.425781 85.308594 10.5 82.765625 11.601562 L 82.789062 11.199219 C 84.367188 12.015625 85.726562 12.871094 86.867188 13.765625 C 88.003906 14.65625 88.878906 15.496094 89.488281 16.285156 C 90.09375 17.078125 90.394531 17.742188 90.394531 18.273438 C 90.394531 18.707031 90.257812 19.0625 89.984375 19.339844 C 89.710938 19.613281 89.3125 19.75 88.796875 19.75 C 88.148438 19.75 87.429688 19.503906 86.640625 19.015625 C 85.851562 18.523438 85.03125 17.785156 84.183594 16.800781 C 83.335938 15.816406 82.488281 14.582031 81.640625 13.101562 L 81.542969 13.101562 C 81.523438 14.148438 81.464844 15.171875 81.359375 16.160156 C 81.246094 17.152344 81.109375 17.964844 80.945312 18.601562 C 80.828125 19.035156 80.648438 19.378906 80.40625 19.640625 C 80.164062 19.898438 79.828125 20.023438 79.398438 20.023438 Z M 99.394531 19.976562 C 97.550781 19.976562 96.078125 19.699219 94.984375 19.148438 C 93.886719 18.601562 93.097656 17.808594 92.613281 16.773438 C 92.132812 15.742188 91.890625 14.507812 91.890625 13.074219 C 91.890625 11.257812 92.226562 9.710938 92.902344 8.433594 C 93.574219 7.160156 94.503906 6.183594 95.695312 5.5 C 96.882812 4.816406 98.234375 4.476562 99.746094 4.476562 C 101.523438 4.476562 102.828125 4.886719 103.660156 5.714844 C 104.492188 6.539062 104.90625 7.617188 104.90625 8.949219 C 104.90625 10.015625 104.628906 10.9375 104.074219 11.714844 C 103.515625 12.488281 102.746094 13.082031 101.765625 13.5 C 100.785156 13.917969 99.652344 14.125 98.375 14.125 C 97.660156 14.125 96.96875 14.035156 96.304688 13.851562 C 95.640625 13.667969 95.039062 13.417969 94.507812 13.101562 L 95.105469 12 C 95.058594 12.398438 95.03125 12.800781 95.03125 13.199219 C 95.03125 14.367188 95.398438 15.203125 96.128906 15.714844 C 96.859375 16.222656 97.898438 16.476562 99.246094 16.476562 C 100.292969 16.476562 101.132812 16.382812 101.765625 16.199219 C 102.398438 16.015625 102.929688 15.835938 103.359375 15.660156 C 103.792969 15.488281 104.21875 15.398438 104.632812 15.398438 C 104.867188 15.398438 105.078125 15.464844 105.265625 15.589844 C 105.460938 15.714844 105.617188 15.890625 105.746094 16.125 C 105.867188 16.359375 105.929688 16.640625 105.929688 16.976562 C 105.929688 17.476562 105.679688 17.953125 105.183594 18.410156 C 104.683594 18.871094 103.945312 19.246094 102.972656 19.535156 C 102 19.828125 100.808594 19.976562 99.394531 19.976562 M 97.949219 11.800781 C 99.128906 11.800781 100.078125 11.550781 100.792969 11.050781 C 101.507812 10.550781 101.863281 9.933594 101.863281 9.199219 C 101.863281 8.617188 101.667969 8.136719 101.277344 7.761719 C 100.886719 7.386719 100.277344 7.199219 99.445312 7.199219 C 98.664062 7.199219 97.964844 7.34375 97.339844 7.636719 C 96.714844 7.929688 96.230469 8.308594 95.878906 8.773438 C 95.53125 9.242188 95.355469 9.75 95.355469 10.300781 C 95.355469 10.785156 95.585938 11.152344 96.039062 11.410156 C 96.5 11.671875 97.136719 11.800781 97.949219 11.800781 Z M 115.332031 19.949219 C 114.78125 19.949219 114.359375 19.78125 114.058594 19.441406 C 113.761719 19.097656 113.546875 18.539062 113.425781 17.765625 C 113.300781 16.988281 113.234375 15.949219 113.234375 14.648438 C 113.234375 12.132812 113.378906 9.96875 113.660156 8.160156 C 113.941406 6.351562 114.425781 4.949219 115.105469 3.949219 C 115.769531 2.984375 116.617188 2.300781 117.640625 1.898438 C 118.660156 1.5 119.769531 1.300781 120.964844 1.300781 C 122.996094 1.300781 124.492188 1.773438 125.453125 2.726562 C 126.417969 3.675781 126.902344 4.917969 126.902344 6.449219 C 126.902344 7.816406 126.542969 8.933594 125.828125 9.800781 C 125.113281 10.667969 124.15625 11.273438 122.953125 11.613281 C 121.746094 11.953125 120.402344 12.042969 118.921875 11.875 L 118.921875 11.976562 C 121.714844 13.175781 123.722656 14.304688 124.945312 15.359375 C 126.167969 16.421875 126.777344 17.332031 126.777344 18.101562 C 126.777344 18.566406 126.625 18.941406 126.316406 19.226562 C 126.007812 19.507812 125.578125 19.648438 125.03125 19.648438 C 124.367188 19.648438 123.617188 19.425781 122.785156 18.976562 C 121.957031 18.523438 121.039062 17.773438 120.035156 16.726562 C 119.027344 15.675781 117.914062 14.257812 116.703125 12.476562 L 116.601562 12.476562 C 116.6875 12.839844 116.753906 13.296875 116.8125 13.839844 C 116.871094 14.378906 116.921875 14.933594 116.964844 15.5 C 117.007812 16.066406 117.027344 16.601562 117.027344 17.101562 C 117.027344 18.015625 116.898438 18.722656 116.640625 19.214844 C 116.382812 19.703125 115.945312 19.949219 115.332031 19.949219 M 119.667969 9.601562 C 120.382812 9.601562 121.03125 9.476562 121.613281 9.234375 C 122.195312 8.996094 122.660156 8.65625 123.011719 8.214844 C 123.359375 7.773438 123.535156 7.25 123.535156 6.648438 C 123.535156 5.867188 123.269531 5.242188 122.738281 4.773438 C 122.203125 4.308594 121.40625 4.074219 120.34375 4.074219 C 119.628906 4.074219 119.019531 4.226562 118.523438 4.535156 C 118.023438 4.84375 117.648438 5.25 117.390625 5.75 C 117.132812 6.25 117 6.792969 117 7.375 C 117 8.023438 117.21875 8.558594 117.648438 8.976562 C 118.082031 9.390625 118.753906 9.601562 119.667969 9.601562 Z M 136.226562 19.976562 C 134.382812 19.976562 132.910156 19.699219 131.8125 19.148438 C 130.714844 18.601562 129.925781 17.808594 129.445312 16.773438 C 128.960938 15.742188 128.722656 14.507812 128.722656 13.074219 C 128.722656 11.257812 129.058594 9.710938 129.734375 8.433594 C 130.40625 7.160156 131.335938 6.183594 132.527344 5.5 C 133.714844 4.816406 135.0625 4.476562 136.578125 4.476562 C 138.355469 4.476562 139.660156 4.886719 140.492188 5.714844 C 141.324219 6.539062 141.738281 7.617188 141.738281 8.949219 C 141.738281 10.015625 141.460938 10.9375 140.90625 11.714844 C 140.347656 12.488281 139.578125 13.082031 138.597656 13.5 C 137.617188 13.917969 136.484375 14.125 135.207031 14.125 C 134.492188 14.125 133.800781 14.035156 133.136719 13.851562 C 132.46875 13.667969 131.871094 13.417969 131.339844 13.101562 L 131.9375 12 C 131.886719 12.398438 131.863281 12.800781 131.863281 13.199219 C 131.863281 14.367188 132.230469 15.203125 132.960938 15.714844 C 133.691406 16.222656 134.730469 16.476562 136.078125 16.476562 C 137.125 16.476562 137.964844 16.382812 138.597656 16.199219 C 139.226562 16.015625 139.761719 15.835938 140.191406 15.660156 C 140.625 15.488281 141.046875 15.398438 141.464844 15.398438 C 141.695312 15.398438 141.910156 15.464844 142.101562 15.589844 C 142.292969 15.714844 142.449219 15.890625 142.578125 16.125 C 142.699219 16.359375 142.761719 16.640625 142.761719 16.976562 C 142.761719 17.476562 142.511719 17.953125 142.011719 18.410156 C 141.515625 18.871094 140.777344 19.246094 139.808594 19.535156 C 138.835938 19.828125 137.640625 19.976562 136.226562 19.976562 M 134.78125 11.800781 C 135.960938 11.800781 136.910156 11.550781 137.625 11.050781 C 138.339844 10.550781 138.695312 9.933594 138.695312 9.199219 C 138.695312 8.617188 138.5 8.136719 138.113281 7.761719 C 137.71875 7.386719 137.109375 7.199219 136.277344 7.199219 C 135.496094 7.199219 134.792969 7.34375 134.171875 7.636719 C 133.546875 7.929688 133.0625 8.308594 132.710938 8.773438 C 132.363281 9.242188 132.1875 9.75 132.1875 10.300781 C 132.1875 10.785156 132.417969 11.152344 132.875 11.410156 C 133.332031 11.671875 133.964844 11.800781 134.78125 11.800781 Z M 147.5 4.226562 C 148.03125 4.226562 148.394531 4.441406 148.585938 4.875 C 148.777344 5.308594 148.871094 5.949219 148.871094 6.800781 C 148.871094 7 148.859375 7.210938 148.835938 7.433594 C 148.808594 7.660156 148.769531 7.867188 148.71875 8.050781 L 148.671875 7.550781 C 149.070312 6.464844 149.683594 5.621094 150.515625 5.011719 C 151.347656 4.402344 152.226562 4.101562 153.160156 4.101562 C 154.191406 4.101562 155.050781 4.390625 155.742188 4.976562 C 156.429688 5.558594 156.945312 6.375 157.289062 7.425781 C 157.628906 8.476562 157.796875 9.714844 157.796875 11.148438 C 157.796875 12.035156 157.761719 12.90625 157.6875 13.765625 C 157.609375 14.621094 157.511719 15.402344 157.386719 16.109375 C 157.261719 16.820312 157.125 17.398438 156.972656 17.851562 C 156.773438 18.417969 156.515625 18.835938 156.203125 19.109375 C 155.886719 19.386719 155.511719 19.523438 155.078125 19.523438 C 154.648438 19.523438 154.316406 19.367188 154.082031 19.050781 C 153.847656 18.734375 153.734375 18.308594 153.734375 17.773438 C 153.734375 17.207031 153.773438 16.523438 153.859375 15.714844 C 153.941406 14.90625 154.019531 14.078125 154.097656 13.234375 C 154.171875 12.394531 154.207031 11.632812 154.207031 10.949219 C 154.207031 8.617188 153.441406 7.449219 151.914062 7.449219 C 151.097656 7.449219 150.417969 7.8125 149.867188 8.535156 C 149.320312 9.261719 148.953125 10.292969 148.769531 11.625 C 148.71875 12.074219 148.695312 12.632812 148.695312 13.300781 C 148.695312 13.964844 148.699219 14.628906 148.710938 15.285156 C 148.71875 15.945312 148.695312 16.5 148.644531 16.949219 C 148.578125 17.949219 148.394531 18.667969 148.085938 19.101562 C 147.777344 19.535156 147.355469 19.75 146.824219 19.75 C 146.210938 19.75 145.746094 19.464844 145.429688 18.890625 C 145.113281 18.3125 144.957031 17.339844 144.957031 15.976562 C 144.957031 15.273438 144.972656 14.492188 145.003906 13.625 C 145.039062 12.757812 145.085938 11.886719 145.144531 11.011719 C 145.203125 10.136719 145.269531 9.339844 145.355469 8.625 C 145.519531 7.273438 145.761719 6.203125 146.078125 5.410156 C 146.394531 4.621094 146.867188 4.226562 147.5 4.226562 Z M 165.054688 4.726562 L 164.554688 4.726562 C 164.503906 3.992188 164.523438 3.296875 164.605469 2.640625 C 164.6875 1.980469 164.867188 1.445312 165.144531 1.035156 C 165.417969 0.628906 165.808594 0.425781 166.324219 0.425781 C 166.792969 0.425781 167.132812 0.574219 167.347656 0.875 C 167.5625 1.175781 167.671875 1.589844 167.671875 2.125 C 167.671875 3.175781 167.472656 4.074219 167.074219 4.824219 L 166.625 4.773438 C 167.523438 4.457031 168.535156 4.300781 169.667969 4.300781 C 170.382812 4.300781 170.953125 4.4375 171.378906 4.714844 C 171.800781 4.988281 172.011719 5.449219 172.011719 6.101562 C 172.011719 6.714844 171.761719 7.183594 171.261719 7.5 C 170.765625 7.816406 170.140625 7.976562 169.394531 7.976562 C 168.945312 7.976562 168.46875 7.953125 167.960938 7.910156 C 167.453125 7.871094 166.957031 7.800781 166.476562 7.699219 L 166.898438 7.175781 C 167.050781 7.808594 167.195312 8.53125 167.339844 9.339844 C 167.476562 10.148438 167.605469 10.984375 167.722656 11.851562 C 167.839844 12.714844 167.929688 13.558594 167.996094 14.375 C 168.0625 15.191406 168.097656 15.925781 168.097656 16.574219 C 168.097656 17.640625 167.929688 18.484375 167.597656 19.101562 C 167.265625 19.714844 166.773438 20.023438 166.125 20.023438 C 165.609375 20.023438 165.207031 19.867188 164.917969 19.550781 C 164.625 19.234375 164.417969 18.828125 164.296875 18.339844 C 164.167969 17.847656 164.09375 17.332031 164.070312 16.800781 C 164.042969 16.265625 164.03125 15.785156 164.03125 15.351562 C 164.03125 14.617188 164.066406 13.785156 164.132812 12.859375 C 164.199219 11.9375 164.292969 10.984375 164.421875 10 C 164.542969 9.015625 164.6875 8.066406 164.855469 7.148438 L 165.351562 7.574219 C 164.503906 8.007812 163.457031 8.226562 162.210938 8.226562 C 161.445312 8.226562 160.855469 8.082031 160.441406 7.800781 C 160.023438 7.515625 159.816406 7.074219 159.816406 6.476562 C 159.816406 5.824219 160.050781 5.320312 160.515625 4.964844 C 160.980469 4.605469 161.605469 4.425781 162.386719 4.425781 C 162.902344 4.425781 163.386719 4.453125 163.847656 4.511719 C 164.300781 4.570312 164.703125 4.640625 165.054688 4.726562 Z M 184.929688 20.023438 C 184.363281 20.023438 183.976562 19.804688 183.769531 19.359375 C 183.5625 18.921875 183.441406 18.214844 183.40625 17.25 L 183.65625 17.375 C 182.726562 19.191406 180.964844 20.101562 178.371094 20.101562 C 177.191406 20.101562 176.207031 19.886719 175.425781 19.464844 C 174.644531 19.039062 174.070312 18.472656 173.695312 17.765625 C 173.320312 17.054688 173.132812 16.285156 173.132812 15.449219 C 173.132812 14.015625 173.632812 12.878906 174.628906 12.035156 C 175.628906 11.195312 176.949219 10.773438 178.59375 10.773438 C 179.675781 10.773438 180.613281 10.933594 181.414062 11.25 C 182.210938 11.566406 182.890625 12.007812 183.457031 12.574219 L 183.03125 12.523438 C 182.917969 10.839844 182.554688 9.636719 181.949219 8.910156 C 181.34375 8.1875 180.480469 7.824219 179.367188 7.824219 C 178.71875 7.824219 178.121094 7.925781 177.570312 8.125 C 177.023438 8.324219 176.519531 8.527344 176.066406 8.734375 C 175.605469 8.945312 175.179688 9.050781 174.777344 9.050781 C 174.378906 9.050781 174.070312 8.917969 173.847656 8.648438 C 173.621094 8.382812 173.507812 8.042969 173.507812 7.625 C 173.507812 7.023438 173.796875 6.457031 174.371094 5.925781 C 174.941406 5.390625 175.703125 4.957031 176.648438 4.625 C 177.597656 4.292969 178.628906 4.125 179.742188 4.125 C 181.089844 4.125 182.242188 4.449219 183.207031 5.101562 C 184.171875 5.75 184.902344 6.699219 185.402344 7.949219 C 185.835938 9.015625 186.140625 10.207031 186.324219 11.523438 C 186.507812 12.839844 186.597656 14.25 186.597656 15.75 C 186.597656 16.882812 186.539062 17.757812 186.425781 18.375 C 186.308594 18.992188 186.128906 19.421875 185.890625 19.660156 C 185.648438 19.902344 185.328125 20.023438 184.929688 20.023438 M 179.417969 17.226562 C 179.964844 17.226562 180.523438 17.144531 181.089844 16.984375 C 181.652344 16.828125 182.128906 16.589844 182.507812 16.273438 C 182.890625 15.957031 183.082031 15.566406 183.082031 15.101562 C 183.082031 14.699219 182.921875 14.371094 182.597656 14.109375 C 182.273438 13.851562 181.847656 13.660156 181.328125 13.523438 C 180.800781 13.390625 180.238281 13.324219 179.640625 13.324219 C 178.628906 13.324219 177.859375 13.5 177.335938 13.851562 C 176.8125 14.199219 176.550781 14.667969 176.550781 15.25 C 176.550781 15.882812 176.796875 16.371094 177.289062 16.714844 C 177.777344 17.054688 178.488281 17.226562 179.417969 17.226562 Z M 192.335938 19.824219 C 191.820312 19.824219 191.410156 19.703125 191.113281 19.464844 C 190.8125 19.222656 190.570312 18.816406 190.390625 18.25 C 190.140625 17.417969 189.953125 16.363281 189.832031 15.089844 C 189.703125 13.8125 189.640625 12.242188 189.640625 10.375 C 189.640625 9.226562 189.6875 8.070312 189.78125 6.910156 C 189.871094 5.753906 189.992188 4.695312 190.140625 3.734375 C 190.289062 2.777344 190.449219 2.035156 190.613281 1.5 C 190.796875 0.933594 191.011719 0.542969 191.261719 0.324219 C 191.511719 0.109375 191.792969 0 192.109375 0 C 192.441406 0 192.707031 0.113281 192.90625 0.339844 C 193.105469 0.5625 193.265625 0.957031 193.382812 1.523438 C 193.480469 2.074219 193.5625 2.75 193.621094 3.550781 C 193.675781 4.351562 193.707031 5.207031 193.707031 6.125 C 193.707031 7.375 193.648438 8.691406 193.53125 10.074219 C 193.414062 11.457031 193.261719 12.816406 193.074219 14.148438 C 192.878906 15.484375 192.648438 16.707031 192.382812 17.824219 L 191.6875 17.476562 C 192.117188 16.941406 192.613281 16.523438 193.171875 16.226562 C 193.726562 15.925781 194.238281 15.773438 194.703125 15.773438 C 195.085938 15.773438 195.382812 15.878906 195.589844 16.089844 C 195.796875 16.296875 195.898438 16.617188 195.898438 17.050781 C 195.898438 17.484375 195.714844 17.917969 195.339844 18.351562 C 194.964844 18.785156 194.503906 19.136719 193.957031 19.410156 C 193.40625 19.6875 192.867188 19.824219 192.335938 19.824219 Z M 192.335938 19.824219 "/>
</g>
</svg>
