<svg xmlns="http://www.w3.org/2000/svg" viewBox="0 8.699999809265137 392.79998779296875 40.20000076293945" data-asc="0.965" width="392.79998779296875" height="40.20000076293945"><defs/><g fill="#000000"><g transform="translate(0, 0)"><path d="M8.70 48.55Q5.65 48.55 4.15 47.75Q2.65 46.95 1.65 44.85Q0.95 43.25 0.48 39.63Q0 36 0 30.20Q0 26.15 0.17 22.45Q0.35 18.75 0.70 16.75Q1.10 14.20 2.02 13.10Q2.95 12 4.35 12Q5.60 12 6.32 13.10Q7.05 14.20 7.35 16.07Q7.65 17.95 7.65 20.20Q7.65 26.30 7.22 32.55Q6.80 38.80 6.05 44.05L5.40 43.15Q7.65 41.60 10.22 40.50Q12.80 39.40 15.27 38.80Q17.75 38.20 19.60 38.20Q21.45 38.20 22.32 38.95Q23.20 39.70 23.20 41.10Q23.20 42.50 21.98 43.92Q20.75 45.35 18.50 46.40Q17.25 47 15.55 47.48Q13.85 47.95 12.07 48.25Q10.30 48.55 8.70 48.55ZM31.75 9.90Q33.75 9.90 34.63 11Q35.50 12.10 35.50 13.55Q35.50 15.35 34.42 16.32Q33.35 17.30 31.40 17.30Q29.50 17.30 28.55 16.23Q27.60 15.15 27.60 13.70Q27.60 11.80 28.75 10.85Q29.90 9.90 31.75 9.90M32.05 21.05Q33.65 21.05 34.58 24.05Q35.50 27.05 35.50 33.60Q35.50 41.65 34.35 45.20Q33.20 48.75 30.85 48.75Q29.05 48.75 28.20 46.13Q27.35 43.50 27.35 36.95Q27.35 28.90 28.68 24.97Q30 21.05 32.05 21.05ZM50.05 18.15L49.05 18.15Q48.90 15.95 49.15 13.98Q49.40 12 50.22 10.77Q51.05 9.55 52.60 9.55Q54 9.55 54.65 10.45Q55.30 11.35 55.30 12.95Q55.30 16.10 54.10 18.35L53.20 18.25Q55.90 17.30 59.30 17.30Q61.45 17.30 62.72 18.13Q64 18.95 64 20.90Q64 22.75 62.50 23.70Q61 24.65 58.75 24.65Q57.40 24.65 55.88 24.52Q54.35 24.40 52.90 24.10L53.75 23.05Q54.20 24.95 54.63 27.38Q55.05 29.80 55.40 32.40Q55.75 35 55.95 37.45Q56.15 39.90 56.15 41.85Q56.15 45.05 55.15 46.90Q54.15 48.75 52.20 48.75Q50.65 48.75 49.77 47.80Q48.90 46.85 48.52 45.38Q48.15 43.90 48.07 42.30Q48 40.70 48 39.40Q48 37.20 48.20 34.42Q48.40 31.65 48.77 28.70Q49.15 25.75 49.65 23L50.65 23.85Q48.10 25.15 44.35 25.15Q42.05 25.15 40.80 24.30Q39.55 23.45 39.55 21.65Q39.55 19.70 40.95 18.63Q42.35 17.55 44.70 17.55Q46.25 17.55 47.63 17.72Q49 17.90 50.05 18.15ZM90.55 47.95Q89.20 47.95 88.47 47.02Q87.75 46.10 87.50 44.63Q87.25 43.15 87.25 41.50L87.50 41.30Q87 43.45 85.55 45Q84.10 46.55 82.20 47.38Q80.30 48.20 78.40 48.20Q75.85 48.20 73.75 47Q71.65 45.80 70.50 43.30Q69.35 40.65 68.70 36.63Q68.05 32.60 68.05 28.35Q68.05 26.05 68.25 24.10Q68.45 22.15 68.90 20.90Q69.30 19.60 70.10 18.97Q70.90 18.35 72.15 18.35Q73.60 18.35 74.42 19.47Q75.25 20.60 75.45 22.60Q75.65 24.25 75.72 26.67Q75.80 29.10 75.88 31.52Q75.95 33.95 76.10 35.60Q76.40 38.60 77.65 40.02Q78.90 41.45 80.70 41.45Q83.35 41.45 84.75 39.45Q86.15 37.45 86.15 33.85Q86.15 32.05 85.95 29.77Q85.75 27.50 85.53 25.35Q85.30 23.20 85.30 21.80Q85.30 19.45 86.10 18.42Q86.90 17.40 88.30 17.40Q89.50 17.40 90.33 18.05Q91.15 18.70 91.65 19.85Q92.35 21.35 92.85 23.95Q93.35 26.55 93.65 29.85Q93.95 33.15 93.95 36.80Q93.95 42.40 93.20 45.17Q92.45 47.95 90.55 47.95ZM119.80 48.50Q116.70 48.50 114.67 47.33Q112.65 46.15 111.65 43.70Q110.95 42 110.63 39.58Q110.30 37.15 110.30 34Q110.30 28.60 110.65 25.07Q111 21.55 111.67 19.38Q112.35 17.20 113.20 15.85Q114.55 13.80 117.50 12.55Q120.45 11.30 125.85 11.30Q129.45 11.30 131.63 12.38Q133.80 13.45 134.78 15.20Q135.75 16.95 135.75 19.10Q135.75 22.50 133.75 24.70Q131.75 26.90 128.50 28.20L128.50 28.40Q132.05 28.80 134.03 30.68Q136 32.55 136 36Q136 38.75 134.63 41.02Q133.25 43.30 130.93 44.98Q128.60 46.65 125.70 47.58Q122.80 48.50 119.80 48.50M121.35 42.50Q123.75 42.50 125.63 41.70Q127.50 40.90 128.57 39.52Q129.65 38.15 129.65 36.40Q129.65 34.50 127.83 33.23Q126 31.95 122.15 31.95Q119.55 31.95 118.03 33.17Q116.50 34.40 116.50 37.35Q116.50 40.15 117.70 41.33Q118.90 42.50 121.35 42.50M121.55 26.65Q124.95 26.65 127.22 25.13Q129.50 23.60 129.50 21.15Q129.50 19.35 128.05 18.25Q126.60 17.15 123.80 17.15Q120.75 17.15 118.80 18.35Q116.85 19.55 116.85 22.45Q116.85 24.80 118.13 25.72Q119.40 26.65 121.55 26.65ZM145.95 9.90Q147.95 9.90 148.82 11Q149.70 12.10 149.70 13.55Q149.70 15.35 148.63 16.32Q147.55 17.30 145.60 17.30Q143.70 17.30 142.75 16.23Q141.80 15.15 141.80 13.70Q141.80 11.80 142.95 10.85Q144.10 9.90 145.95 9.90M146.25 21.05Q147.85 21.05 148.78 24.05Q149.70 27.05 149.70 33.60Q149.70 41.65 148.55 45.20Q147.40 48.75 145.05 48.75Q143.25 48.75 142.40 46.13Q141.55 43.50 141.55 36.95Q141.55 28.90 142.88 24.97Q144.20 21.05 146.25 21.05ZM159.20 48.75Q158.25 48.75 157.65 48.17Q157.05 47.60 156.80 46.50Q156.40 44.65 156.10 41.15Q155.80 37.65 155.80 33.40Q155.80 28.15 156.18 23.30Q156.55 18.45 157.15 15.35Q157.80 12 158.75 10.42Q159.70 8.85 161.25 8.85Q162.65 8.85 163.40 10.13Q164.15 11.40 164.15 14.50Q164.15 17.60 163.93 21.15Q163.70 24.70 163.20 28.75L163.40 28.75Q166.65 24.35 169.47 21.70Q172.30 19.05 174.68 17.85Q177.05 16.65 178.90 16.65Q180.35 16.65 181.05 17.55Q181.75 18.45 181.75 19.75Q181.75 22.30 177.68 25.45Q173.60 28.60 165.95 31.90L166 31.10Q170.75 33.55 174.18 36.23Q177.60 38.90 179.43 41.27Q181.25 43.65 181.25 45.25Q181.25 46.55 180.43 47.38Q179.60 48.20 178.05 48.20Q176.10 48.20 173.72 46.73Q171.35 45.25 168.80 42.30Q166.25 39.35 163.70 34.90L163.50 34.90Q163.45 38.05 163.13 41.02Q162.80 44 162.30 45.90Q161.95 47.20 161.22 47.98Q160.50 48.75 159.20 48.75ZM199.30 48.65Q193.75 48.65 190.45 47Q187.15 45.35 185.70 42.25Q184.25 39.15 184.25 34.85Q184.25 29.40 186.28 25.57Q188.30 21.75 191.88 19.70Q195.45 17.65 200 17.65Q205.35 17.65 207.85 20.13Q210.35 22.60 210.35 26.60Q210.35 29.80 208.68 32.13Q207 34.45 204.05 35.70Q201.10 36.95 197.25 36.95Q195.10 36.95 193.10 36.40Q191.10 35.85 189.50 34.90L190.70 32.70Q190.55 33.90 190.55 35.10Q190.55 38.60 192.75 40.13Q194.95 41.65 199 41.65Q202.15 41.65 204.05 41.10Q205.95 40.55 207.25 40.02Q208.55 39.50 209.80 39.50Q210.50 39.50 211.07 39.88Q211.65 40.25 212.03 40.95Q212.40 41.65 212.40 42.65Q212.40 44.15 210.90 45.52Q209.40 46.90 206.47 47.77Q203.55 48.65 199.30 48.65M196.40 32.30Q199.95 32.30 202.10 30.80Q204.25 29.30 204.25 27.10Q204.25 25.35 203.07 24.22Q201.90 23.10 199.40 23.10Q197.05 23.10 195.18 23.97Q193.30 24.85 192.25 26.25Q191.20 27.65 191.20 29.30Q191.20 30.75 192.57 31.52Q193.95 32.30 196.40 32.30ZM231.25 48.60Q229.60 48.60 228.70 47.58Q227.80 46.55 227.43 44.23Q227.05 41.90 227.05 38Q227.05 30.45 227.90 25.02Q228.75 19.60 230.80 16.60Q232.80 13.70 235.88 12.50Q238.95 11.30 242.55 11.30Q248.65 11.30 251.55 14.15Q254.45 17 254.45 21.60Q254.45 25.70 252.30 28.30Q250.15 30.90 246.53 31.93Q242.90 32.95 238.45 32.45L238.45 32.65Q246.85 36.25 250.53 39.42Q254.20 42.60 254.20 44.90Q254.20 46.30 253.28 47.15Q252.35 48 250.70 48Q248.70 48 246.20 46.65Q243.70 45.30 240.68 42.15Q237.65 39 234 33.65L233.80 33.65Q234.05 34.75 234.22 36.38Q234.40 38 234.53 39.70Q234.65 41.40 234.65 42.90Q234.65 45.65 233.88 47.13Q233.10 48.60 231.25 48.60M239.95 27.90Q242.10 27.90 243.85 27.17Q245.60 26.45 246.65 25.13Q247.70 23.80 247.70 22Q247.70 19.65 246.10 18.25Q244.50 16.85 241.30 16.85Q239.15 16.85 237.65 17.77Q236.15 18.70 235.38 20.20Q234.60 21.70 234.60 23.45Q234.60 25.40 235.90 26.65Q237.20 27.90 239.95 27.90ZM273.15 48.65Q267.60 48.65 264.30 47Q261 45.35 259.55 42.25Q258.10 39.15 258.10 34.85Q258.10 29.40 260.13 25.57Q262.15 21.75 265.73 19.70Q269.30 17.65 273.85 17.65Q279.20 17.65 281.70 20.13Q284.20 22.60 284.20 26.60Q284.20 29.80 282.53 32.13Q280.85 34.45 277.90 35.70Q274.95 36.95 271.10 36.95Q268.95 36.95 266.95 36.40Q264.95 35.85 263.35 34.90L264.55 32.70Q264.40 33.90 264.40 35.10Q264.40 38.60 266.60 40.13Q268.80 41.65 272.85 41.65Q276 41.65 277.90 41.10Q279.80 40.55 281.10 40.02Q282.40 39.50 283.65 39.50Q284.35 39.50 284.93 39.88Q285.50 40.25 285.88 40.95Q286.25 41.65 286.25 42.65Q286.25 44.15 284.75 45.52Q283.25 46.90 280.33 47.77Q277.40 48.65 273.15 48.65M270.25 32.30Q273.80 32.30 275.95 30.80Q278.10 29.30 278.10 27.10Q278.10 25.35 276.93 24.22Q275.75 23.10 273.25 23.10Q270.90 23.10 269.03 23.97Q267.15 24.85 266.10 26.25Q265.05 27.65 265.05 29.30Q265.05 30.75 266.43 31.52Q267.80 32.30 270.25 32.30ZM295.75 17.15Q297.35 17.15 297.93 18.45Q298.50 19.75 298.50 22.30Q298.50 22.90 298.43 23.57Q298.35 24.25 298.20 24.80L298.10 23.80Q299.30 20.55 301.80 18.72Q304.30 16.90 307.10 16.90Q310.20 16.90 312.28 18.65Q314.35 20.40 315.38 23.55Q316.40 26.70 316.40 31Q316.40 33.65 316.18 36.23Q315.95 38.80 315.58 40.92Q315.20 43.05 314.75 44.40Q314.15 46.10 313.20 46.92Q312.25 47.75 310.95 47.75Q309.65 47.75 308.95 46.80Q308.25 45.85 308.25 44.25Q308.25 42.55 308.50 40.13Q308.75 37.70 308.98 35.17Q309.20 32.65 309.20 30.60Q309.20 23.60 304.60 23.60Q302.15 23.60 300.50 25.77Q298.85 27.95 298.30 31.95Q298.15 33.30 298.15 35.30Q298.15 37.30 298.18 39.27Q298.20 41.25 298.05 42.60Q297.85 45.60 296.93 46.90Q296 48.20 294.40 48.20Q292.55 48.20 291.60 46.48Q290.65 44.75 290.65 40.65Q290.65 38.55 290.75 35.95Q290.85 33.35 291.03 30.72Q291.20 28.10 291.45 25.95Q291.95 21.90 292.90 19.52Q293.85 17.15 295.75 17.15ZM330.95 18.15L329.95 18.15Q329.80 15.95 330.05 13.98Q330.30 12 331.13 10.77Q331.95 9.55 333.50 9.55Q334.90 9.55 335.55 10.45Q336.20 11.35 336.20 12.95Q336.20 16.10 335.00 18.35L334.10 18.25Q336.80 17.30 340.20 17.30Q342.35 17.30 343.63 18.13Q344.90 18.95 344.90 20.90Q344.90 22.75 343.40 23.70Q341.90 24.65 339.65 24.65Q338.30 24.65 336.78 24.52Q335.25 24.40 333.80 24.10L334.65 23.05Q335.10 24.95 335.53 27.38Q335.95 29.80 336.30 32.40Q336.65 35 336.85 37.45Q337.05 39.90 337.05 41.85Q337.05 45.05 336.05 46.90Q335.05 48.75 333.10 48.75Q331.55 48.75 330.68 47.80Q329.80 46.85 329.43 45.38Q329.05 43.90 328.98 42.30Q328.90 40.70 328.90 39.40Q328.90 37.20 329.10 34.42Q329.30 31.65 329.68 28.70Q330.05 25.75 330.55 23L331.55 23.85Q329.00 25.15 325.25 25.15Q322.95 25.15 321.70 24.30Q320.45 23.45 320.45 21.65Q320.45 19.70 321.85 18.63Q323.25 17.55 325.60 17.55Q327.15 17.55 328.53 17.72Q329.90 17.90 330.95 18.15ZM370.80 48.75Q369.10 48.75 368.48 47.42Q367.85 46.10 367.75 43.20L368.25 43.45Q365.45 48.90 357.65 48.90Q354.10 48.90 351.75 47.63Q349.40 46.35 348.28 44.23Q347.15 42.10 347.15 39.60Q347.15 35.30 350.15 32.77Q353.15 30.25 358.10 30.25Q361.35 30.25 363.75 31.20Q366.15 32.15 367.85 33.85L367.00 33.75Q366.65 28.70 364.83 26.52Q363.00 24.35 359.65 24.35Q357.70 24.35 356.05 24.95Q354.40 25.55 353.03 26.17Q351.65 26.80 350.45 26.80Q349.25 26.80 348.58 26Q347.90 25.20 347.90 23.95Q347.90 22.15 349.63 20.55Q351.35 18.95 354.20 17.95Q357.05 16.95 360.40 16.95Q364.45 16.95 367.35 18.90Q370.25 20.85 371.75 24.60Q373.05 27.80 373.60 31.75Q374.15 35.70 374.15 40.20Q374.15 43.60 373.80 45.45Q373.45 47.30 372.73 48.02Q372.00 48.75 370.80 48.75M359.75 43.15Q361.40 43.15 363.10 42.67Q364.80 42.20 365.95 41.25Q367.10 40.30 367.10 38.90Q367.10 37.70 366.13 36.92Q365.15 36.15 363.58 35.75Q362.00 35.35 360.20 35.35Q357.15 35.35 355.58 36.40Q354.00 37.45 354.00 39.20Q354.00 41.10 355.48 42.13Q356.95 43.15 359.75 43.15ZM385.65 48.35Q384.10 48.35 383.20 47.63Q382.30 46.90 381.75 45.20Q381.00 42.70 380.63 38.88Q380.25 35.05 380.25 29.45Q380.25 26 380.53 22.52Q380.80 19.05 381.25 16.17Q381.70 13.30 382.20 11.70Q382.75 10 383.50 9.35Q384.25 8.70 385.20 8.70Q386.20 8.70 386.80 9.38Q387.40 10.05 387.75 11.75Q388.05 13.40 388.23 15.80Q388.40 18.20 388.40 20.95Q388.40 24.70 388.05 28.85Q387.70 33 387.13 37Q386.55 41 385.75 44.35L384.35 43.65Q385.65 42.05 387.33 41.15Q389.00 40.25 390.40 40.25Q391.55 40.25 392.18 40.88Q392.80 41.50 392.80 42.80Q392.80 44.10 391.68 45.40Q390.55 46.70 388.90 47.52Q387.25 48.35 385.65 48.35Z"/></g></g></svg>